<svg width="193" height="211" viewBox="0 0 193 211" fill="none" xmlns="http://www.w3.org/2000/svg">
<path d="M43.8745 234.769L42.8425 235.39L-28.9756 278.654L-28.9966 278.667L-29.0173 278.68C-31.8536 280.485 -34.7394 281.219 -37.7282 280.97C-40.8255 280.712 -43.4798 279.691 -45.7518 277.923L-45.7562 277.92C-48.0976 276.109 -49.9196 273.839 -51.2303 271.081C-52.4506 268.513 -52.7322 265.593 -51.954 262.217L43.8745 234.769ZM43.8745 234.769L44.9065 235.39L116.725 278.654L116.746 278.667L116.766 278.68C119.603 280.485 122.488 281.219 125.477 280.97C128.574 280.712 131.229 279.691 133.501 277.923C135.845 276.1 137.668 273.822 138.979 271.064C140.2 268.495 140.481 265.579 139.702 262.215L120.667 180.449L120.393 179.272L121.307 178.482L184.89 123.55C187.498 121.198 189.043 118.601 189.657 115.751C190.294 112.792 190.104 109.932 189.091 107.128C188.041 104.24 186.491 101.939 184.463 100.164C182.538 98.4797 179.784 97.2961 176.032 96.7528L92.1555 89.4028L90.955 89.2976L90.487 88.187L58.0391 11.1773L58.036 11.1699C56.7507 8.08523 54.7976 5.84526 52.1767 4.35047C49.4119 2.77355 46.6526 2.01733 43.8745 2.01733C41.0839 2.01733 38.3257 2.77409 35.5751 4.34884C32.9641 5.84368 31.0084 8.0856 29.7108 11.1751L29.7099 11.1773L-2.73799 88.187L-3.20593 89.2976L-4.40648 89.4028L-88.2832 96.7528C-92.0346 97.2961 -94.789 98.4797 -96.7141 100.164C-98.7427 101.939 -100.293 104.242 -101.343 107.13C-102.367 109.947 -102.562 112.811 -101.925 115.769C-101.312 118.616 -99.763 121.206 -97.1436 123.548C-97.1397 123.551 -97.1359 123.554 -97.132 123.558L-33.5583 178.482L-32.6439 179.272L-32.9179 180.449L-51.9531 262.214L43.8745 234.769Z" stroke="#DCFD88" stroke-opacity="0.32" stroke-width="4"/>
</svg>
