<svg width="34" height="36" viewBox="0 0 34 36" fill="none" xmlns="http://www.w3.org/2000/svg">
<path d="M0 15C0 6.71573 6.71573 0 15 0V21C15 29.2843 8.28427 36 0 36V15Z" fill="#34D399"/>
<path d="M17 8.5C17 3.80558 20.8056 0 25.5 0C30.1944 0 34 3.80558 34 8.5C34 13.1944 30.1944 17 25.5 17C20.8056 17 17 13.1944 17 8.5Z" fill="#1E40AF"/>
<path d="M17 27.5C17 22.8056 20.8056 19 25.5 19C30.1944 19 34 22.8056 34 27.5C34 32.1944 30.1944 36 25.5 36C20.8056 36 17 32.1944 17 27.5Z" fill="#F59E0B"/>
</svg>
