<svg width="100" height="106" viewBox="0 0 100 106" fill="none" xmlns="http://www.w3.org/2000/svg">
<path d="M0 44.094C0 19.7416 19.7415 0 44.094 0V61.7315C44.094 86.0839 24.3524 105.826 0 105.826V44.094Z" fill="#34D399"/>
<path d="M50.0269 24.9866C50.0269 11.1869 61.2137 0 75.0134 0C88.8131 0 100 11.1869 100 24.9866C100 38.7863 88.8131 49.9732 75.0134 49.9732C61.2137 49.9732 50.0269 38.7863 50.0269 24.9866Z" fill="#1E40AF"/>
<path d="M50.0269 80.8926C50.0269 67.0929 61.2137 55.906 75.0134 55.906C88.8131 55.906 100 67.0929 100 80.8926C100 94.6923 88.8131 105.879 75.0134 105.879C61.2137 105.879 50.0269 94.6923 50.0269 80.8926Z" fill="#F59E0B"/>
</svg>
