<svg width="192" height="211" viewBox="0 0 192 211" fill="none" xmlns="http://www.w3.org/2000/svg">
<path d="M148.674 234.769L149.706 235.39L221.524 278.654L221.545 278.667L221.566 278.68C224.402 280.485 227.288 281.219 230.277 280.97C233.374 280.712 236.029 279.691 238.301 277.923L238.305 277.92C240.646 276.109 242.468 273.839 243.779 271.081C244.999 268.513 245.281 265.593 244.503 262.217L148.674 234.769ZM148.674 234.769L147.642 235.39L75.8241 278.654L75.8031 278.667L75.7824 278.68C72.946 280.485 70.0602 281.219 67.0715 280.97C63.9742 280.712 61.3199 279.691 59.0479 277.923C56.7039 276.1 54.8805 273.822 53.5694 271.064C52.3483 268.495 52.0676 265.579 52.8463 262.215L71.8818 180.449L72.1558 179.272L71.2414 178.482L7.65919 123.55C5.05048 121.198 3.50522 118.601 2.89183 115.751C2.25464 112.792 2.44458 109.932 3.45728 107.128C4.50764 104.24 6.05749 101.939 8.0856 100.164C10.0107 98.4797 12.7651 97.2961 16.5165 96.7528L100.393 89.4028L101.594 89.2976L102.062 88.187L134.51 11.1773L134.513 11.1699C135.798 8.08523 137.751 5.84526 140.372 4.35047C143.137 2.77355 145.896 2.01733 148.674 2.01733C151.465 2.01733 154.223 2.77409 156.974 4.34884C159.585 5.84368 161.54 8.0856 162.838 11.1751L162.839 11.1773L195.287 88.187L195.755 89.2976L196.955 89.4028L280.832 96.7528C284.583 97.2961 287.338 98.4797 289.263 100.164C291.291 101.939 292.841 104.242 293.892 107.13C294.916 109.947 295.111 112.811 294.474 115.769C293.861 118.616 292.312 121.206 289.692 123.548C289.688 123.551 289.685 123.554 289.681 123.558L226.107 178.482L225.193 179.272L225.467 180.449L244.502 262.214L148.674 234.769Z" stroke="#DCFD88" stroke-opacity="0.32" stroke-width="4"/>
</svg>
