<svg width="205" height="105" viewBox="0 0 205 105" fill="none" xmlns="http://www.w3.org/2000/svg">
<path d="M101.184 161.738L102.216 161.116L103.248 161.738L152.734 191.549L152.755 191.561L152.776 191.575C154.626 192.752 156.48 193.217 158.393 193.058C160.414 192.889 162.126 192.226 163.591 191.087C165.128 189.892 166.323 188.4 167.186 186.584C167.959 184.959 168.15 183.096 167.64 180.894L154.524 124.554L154.25 123.377L155.164 122.587L198.97 84.7415C200.682 83.1964 201.668 81.5194 202.059 79.7031C202.474 77.7765 202.35 75.9249 201.693 74.1042C201.001 72.2031 199.989 70.7085 198.679 69.5617C197.47 68.5045 195.702 67.7248 193.207 67.3611L135.43 62.2981L134.229 62.1929L133.761 61.0823L111.403 8.01907L111.4 8.01172C110.563 6.00329 109.306 4.5705 107.629 3.61384C105.807 2.57504 104.011 2.08789 102.216 2.08789C100.412 2.08789 98.6171 2.57559 96.8065 3.61221C95.1354 4.56893 93.8757 6.00366 93.0301 8.01696L93.0292 8.01907L70.6711 61.0823L70.2032 62.1929L69.0026 62.2981L11.2253 67.3611C8.73024 67.7248 6.96191 68.5045 5.75372 69.5617C4.44261 70.7089 3.43063 72.204 2.73898 74.106C2.07358 75.9359 1.94725 77.7908 2.36148 79.715C2.752 81.529 3.73982 83.2011 5.45863 84.7386L49.268 122.587L50.1824 123.377L49.9084 124.554L36.7925 180.893C36.7924 180.894 36.7922 180.894 36.7921 180.895C36.2824 183.105 36.4742 184.972 37.2463 186.596C38.1085 188.41 39.3028 189.897 40.837 191.084L40.8413 191.087C42.3062 192.226 44.0188 192.889 46.0398 193.058C47.9523 193.217 49.8067 192.752 51.6565 191.575L51.6772 191.561L51.6982 191.549L101.184 161.738Z" stroke="#DCFD88" stroke-opacity="0.32" stroke-width="4"/>
</svg>
